Input #0, mov,mp4,m4a,3gp,3g2,mj2, from '/home/hbattu/projects/huberman-gpt/huberman-audio/mp3/tmpyy6uwhf1.mp4':
  Metadata:
    major_brand     : dash
    minor_version   : 0
    compatible_brands: iso6mp41
    creation_time   : 2021-12-15T13:21:35.000000Z
  Duration: 01:52:47.60, start: 0.000000, bitrate: 129 kb/s
    Stream #0:0(eng): Audio: aac (LC) (mp4a / 0x6134706D), 44100 Hz, stereo, fltp, 0 kb/s (default)
    Metadata:
      creation_time   : 2021-12-15T13:21:35.000000Z
      handler_name    : ISO Media file produced by Google Inc.
Stream mapping:
  Stream #0:0 -> #0:0 (aac (native) -> mp3 (libmp3lame))
Press [q] to stop, [?] for help
[graph_0_in_0_0 @ 0x557aae9c3f80] tb:1/44100 samplefmt:fltp samplerate:44100 chlayout:0x3
Output #0, mp3, to '../huberman-audio/mp3/oC3fhUjg30E.mp3':
  Metadata:
    major_brand     : dash
    minor_version   : 0
    compatible_brands: iso6mp41
    TSSE            : Lavf58.29.100
    Stream #0:0(eng): Audio: mp3 (libmp3lame), 44100 Hz, stereo, fltp, delay 1105 (default)
    Metadata:
      creation_time   : 2021-12-15T13:21:35.000000Z
      handler_name    : ISO Media file produced by Google Inc.
      encoder         : Lavc58.54.100 libmp3lame
No more output streams to write to, finishing.
size=  105744kB time=01:52:47.59 bitrate= 128.0kbits/s speed=73.2x    
[AVIOContext @ 0x557aae8b5900] Statistics: 0 seeks, 185 writeouts
video:0kB audio:105744kB subtitle:0kB other streams:0kB global headers:0kB muxing overhead: 0.000320%
Input file #0 (/home/hbattu/projects/huberman-gpt/huberman-audio/mp3/tmpyy6uwhf1.mp4):
  Input stream #0:0 (audio): 291456 packets read (108281521 bytes); 291456 frames decoded (298450944 samples); 
  Total: 291456 packets (108281521 bytes) demuxed
Output file #0 (../huberman-audio/mp3/oC3fhUjg30E.mp3):
  Output stream #0:0 (audio): 259072 frames encoded (298450944 samples); 259073 packets muxed (108281939 bytes); 
  Total: 259073 packets (108281939 bytes) muxed
[AVIOContext @ 0x557aae8df1c0] Statistics: 2 seeks, 415 writeouts
[AVIOContext @ 0x557aae8be880] Statistics: 109526657 bytes read, 0 seeks
